<mxfile host="app.diagrams.net" modified="2024-04-05T16:52:35.339Z" agent="Mozilla/5.0 (Windows NT 10.0; Win64; x64) AppleWebKit/537.36 (KHTML, like Gecko) Chrome/123.0.0.0 Safari/537.36 Edg/123.0.0.0" etag="vzwgJXwVLAsCW-3WggHD" version="24.2.2" type="device">
  <diagram name="StrÃ¡nka-1" id="my_ql4EVGXeYwR-Lx28C">
    <mxGraphModel dx="1426" dy="1085" grid="1" gridSize="10" guides="1" tooltips="1" connect="1" arrows="1" fold="1" page="1" pageScale="1" pageWidth="500" pageHeight="300" math="0" shadow="0">
      <root>
        <mxCell id="0" />
        <mxCell id="1" parent="0" />
        <mxCell id="o4xuiC8xF3JpILg-jTOS-2" value="" style="rounded=0;whiteSpace=wrap;html=1;" vertex="1" parent="1">
          <mxGeometry x="110" y="-229.5" width="280" height="160" as="geometry" />
        </mxCell>
        <mxCell id="o4xuiC8xF3JpILg-jTOS-1" value="M" style="rounded=0;whiteSpace=wrap;html=1;fillColor=#ffe6cc;strokeColor=#b46504;" vertex="1" parent="1">
          <mxGeometry x="190" y="-179.5" width="120" height="80" as="geometry" />
        </mxCell>
        <mxCell id="o4xuiC8xF3JpILg-jTOS-7" value="" style="endArrow=classic;startArrow=classic;html=1;rounded=0;" edge="1" parent="1">
          <mxGeometry width="50" height="50" relative="1" as="geometry">
            <mxPoint x="110.5" y="-199.5" as="sourcePoint" />
            <mxPoint x="390.5" y="-199.5" as="targetPoint" />
          </mxGeometry>
        </mxCell>
        <mxCell id="o4xuiC8xF3JpILg-jTOS-10" value="" style="rounded=0;whiteSpace=wrap;html=1;fillColor=#dae8fc;strokeColor=#6c8ebf;" vertex="1" parent="1">
          <mxGeometry x="410" y="-89.5" width="60" height="10" as="geometry" />
        </mxCell>
        <mxCell id="o4xuiC8xF3JpILg-jTOS-11" value="" style="rounded=0;whiteSpace=wrap;html=1;fillColor=#ffe6cc;strokeColor=#d79b00;" vertex="1" parent="1">
          <mxGeometry x="390" y="-119.5" width="60" height="10" as="geometry" />
        </mxCell>
        <mxCell id="o4xuiC8xF3JpILg-jTOS-12" value="" style="rounded=0;whiteSpace=wrap;html=1;fillColor=#b0e3e6;strokeColor=#0e8088;" vertex="1" parent="1">
          <mxGeometry x="410" y="-154.5" width="60" height="10" as="geometry" />
        </mxCell>
        <mxCell id="o4xuiC8xF3JpILg-jTOS-13" value="" style="rounded=0;whiteSpace=wrap;html=1;fillColor=#ffe6cc;strokeColor=#d79b00;" vertex="1" parent="1">
          <mxGeometry x="390" y="-189.5" width="60" height="10" as="geometry" />
        </mxCell>
        <mxCell id="o4xuiC8xF3JpILg-jTOS-14" value="" style="rounded=0;whiteSpace=wrap;html=1;fillColor=#dae8fc;strokeColor=#6c8ebf;" vertex="1" parent="1">
          <mxGeometry x="410" y="-219.5" width="60" height="10" as="geometry" />
        </mxCell>
        <mxCell id="o4xuiC8xF3JpILg-jTOS-18" value="" style="rounded=0;whiteSpace=wrap;html=1;fillColor=#dae8fc;strokeColor=#6c8ebf;" vertex="1" parent="1">
          <mxGeometry x="30" y="-89.5" width="60" height="10" as="geometry" />
        </mxCell>
        <mxCell id="o4xuiC8xF3JpILg-jTOS-19" value="" style="rounded=0;whiteSpace=wrap;html=1;fillColor=#ffe6cc;strokeColor=#d79b00;" vertex="1" parent="1">
          <mxGeometry x="50" y="-119.5" width="60" height="10" as="geometry" />
        </mxCell>
        <mxCell id="o4xuiC8xF3JpILg-jTOS-20" value="" style="rounded=0;whiteSpace=wrap;html=1;fillColor=#b0e3e6;strokeColor=#0e8088;" vertex="1" parent="1">
          <mxGeometry x="30" y="-154.5" width="60" height="10" as="geometry" />
        </mxCell>
        <mxCell id="o4xuiC8xF3JpILg-jTOS-21" value="" style="rounded=0;whiteSpace=wrap;html=1;fillColor=#ffe6cc;strokeColor=#d79b00;" vertex="1" parent="1">
          <mxGeometry x="50" y="-189.5" width="60" height="10" as="geometry" />
        </mxCell>
        <mxCell id="o4xuiC8xF3JpILg-jTOS-22" value="" style="rounded=0;whiteSpace=wrap;html=1;fillColor=#dae8fc;strokeColor=#6c8ebf;" vertex="1" parent="1">
          <mxGeometry x="30" y="-219.5" width="60" height="10" as="geometry" />
        </mxCell>
        <mxCell id="o4xuiC8xF3JpILg-jTOS-24" value="" style="endArrow=none;html=1;rounded=0;" edge="1" parent="1">
          <mxGeometry width="50" height="50" relative="1" as="geometry">
            <mxPoint x="240" y="-29.5" as="sourcePoint" />
            <mxPoint x="260" y="-34.5" as="targetPoint" />
          </mxGeometry>
        </mxCell>
        <mxCell id="o4xuiC8xF3JpILg-jTOS-25" value="" style="endArrow=none;html=1;rounded=0;" edge="1" parent="1">
          <mxGeometry width="50" height="50" relative="1" as="geometry">
            <mxPoint x="240" y="-39.5" as="sourcePoint" />
            <mxPoint x="260" y="-34.5" as="targetPoint" />
          </mxGeometry>
        </mxCell>
        <mxCell id="o4xuiC8xF3JpILg-jTOS-26" value="" style="endArrow=none;html=1;rounded=0;" edge="1" parent="1">
          <mxGeometry width="50" height="50" relative="1" as="geometry">
            <mxPoint x="240" y="-39.5" as="sourcePoint" />
            <mxPoint x="260" y="-44.5" as="targetPoint" />
          </mxGeometry>
        </mxCell>
        <mxCell id="o4xuiC8xF3JpILg-jTOS-27" value="" style="endArrow=none;html=1;rounded=0;" edge="1" parent="1">
          <mxGeometry width="50" height="50" relative="1" as="geometry">
            <mxPoint x="240" y="-49.5" as="sourcePoint" />
            <mxPoint x="260" y="-44.5" as="targetPoint" />
          </mxGeometry>
        </mxCell>
        <mxCell id="o4xuiC8xF3JpILg-jTOS-28" value="" style="endArrow=none;html=1;rounded=0;" edge="1" parent="1">
          <mxGeometry width="50" height="50" relative="1" as="geometry">
            <mxPoint x="240" y="-49.5" as="sourcePoint" />
            <mxPoint x="260" y="-54.5" as="targetPoint" />
          </mxGeometry>
        </mxCell>
        <mxCell id="o4xuiC8xF3JpILg-jTOS-29" value="" style="endArrow=none;html=1;rounded=0;" edge="1" parent="1">
          <mxGeometry width="50" height="50" relative="1" as="geometry">
            <mxPoint x="240" y="-59.5" as="sourcePoint" />
            <mxPoint x="260" y="-54.5" as="targetPoint" />
          </mxGeometry>
        </mxCell>
        <mxCell id="o4xuiC8xF3JpILg-jTOS-30" value="" style="endArrow=none;html=1;rounded=0;" edge="1" parent="1">
          <mxGeometry width="50" height="50" relative="1" as="geometry">
            <mxPoint x="240" y="-59.5" as="sourcePoint" />
            <mxPoint x="250" y="-69.5" as="targetPoint" />
            <Array as="points">
              <mxPoint x="250" y="-59.5" />
            </Array>
          </mxGeometry>
        </mxCell>
        <mxCell id="o4xuiC8xF3JpILg-jTOS-31" value="" style="endArrow=none;html=1;rounded=0;" edge="1" parent="1">
          <mxGeometry width="50" height="50" relative="1" as="geometry">
            <mxPoint x="250" y="-24.5" as="sourcePoint" />
            <mxPoint x="240" y="-29.5" as="targetPoint" />
            <Array as="points" />
          </mxGeometry>
        </mxCell>
        <mxCell id="o4xuiC8xF3JpILg-jTOS-32" value="" style="ellipse;whiteSpace=wrap;html=1;aspect=fixed;" vertex="1" parent="1">
          <mxGeometry x="247.5" y="-27" width="5" height="5" as="geometry" />
        </mxCell>
        <mxCell id="o4xuiC8xF3JpILg-jTOS-33" value="" style="endArrow=none;html=1;rounded=0;" edge="1" parent="1">
          <mxGeometry width="50" height="50" relative="1" as="geometry">
            <mxPoint x="240" y="-239.5" as="sourcePoint" />
            <mxPoint x="260" y="-244.5" as="targetPoint" />
          </mxGeometry>
        </mxCell>
        <mxCell id="o4xuiC8xF3JpILg-jTOS-34" value="" style="endArrow=none;html=1;rounded=0;" edge="1" parent="1">
          <mxGeometry width="50" height="50" relative="1" as="geometry">
            <mxPoint x="240" y="-249.5" as="sourcePoint" />
            <mxPoint x="260" y="-244.5" as="targetPoint" />
          </mxGeometry>
        </mxCell>
        <mxCell id="o4xuiC8xF3JpILg-jTOS-35" value="" style="endArrow=none;html=1;rounded=0;" edge="1" parent="1">
          <mxGeometry width="50" height="50" relative="1" as="geometry">
            <mxPoint x="240" y="-249.5" as="sourcePoint" />
            <mxPoint x="260" y="-254.5" as="targetPoint" />
          </mxGeometry>
        </mxCell>
        <mxCell id="o4xuiC8xF3JpILg-jTOS-36" value="" style="endArrow=none;html=1;rounded=0;" edge="1" parent="1">
          <mxGeometry width="50" height="50" relative="1" as="geometry">
            <mxPoint x="240" y="-259.5" as="sourcePoint" />
            <mxPoint x="260" y="-254.5" as="targetPoint" />
          </mxGeometry>
        </mxCell>
        <mxCell id="o4xuiC8xF3JpILg-jTOS-37" value="" style="endArrow=none;html=1;rounded=0;" edge="1" parent="1">
          <mxGeometry width="50" height="50" relative="1" as="geometry">
            <mxPoint x="240" y="-259.5" as="sourcePoint" />
            <mxPoint x="260" y="-264.5" as="targetPoint" />
          </mxGeometry>
        </mxCell>
        <mxCell id="o4xuiC8xF3JpILg-jTOS-38" value="" style="endArrow=none;html=1;rounded=0;" edge="1" parent="1">
          <mxGeometry width="50" height="50" relative="1" as="geometry">
            <mxPoint x="240" y="-269.5" as="sourcePoint" />
            <mxPoint x="260" y="-264.5" as="targetPoint" />
          </mxGeometry>
        </mxCell>
        <mxCell id="o4xuiC8xF3JpILg-jTOS-39" value="" style="endArrow=none;html=1;rounded=0;" edge="1" parent="1">
          <mxGeometry width="50" height="50" relative="1" as="geometry">
            <mxPoint x="250" y="-229.5" as="sourcePoint" />
            <mxPoint x="240" y="-239.5" as="targetPoint" />
            <Array as="points">
              <mxPoint x="250" y="-239.5" />
            </Array>
          </mxGeometry>
        </mxCell>
        <mxCell id="o4xuiC8xF3JpILg-jTOS-40" value="" style="endArrow=none;html=1;rounded=0;" edge="1" parent="1">
          <mxGeometry width="50" height="50" relative="1" as="geometry">
            <mxPoint x="250" y="-274.5" as="sourcePoint" />
            <mxPoint x="240" y="-269.5" as="targetPoint" />
            <Array as="points" />
          </mxGeometry>
        </mxCell>
        <mxCell id="o4xuiC8xF3JpILg-jTOS-41" value="" style="ellipse;whiteSpace=wrap;html=1;aspect=fixed;" vertex="1" parent="1">
          <mxGeometry x="248" y="-277" width="5" height="5" as="geometry" />
        </mxCell>
        <mxCell id="o4xuiC8xF3JpILg-jTOS-42" value="" style="endArrow=none;html=1;rounded=0;" edge="1" parent="1">
          <mxGeometry width="50" height="50" relative="1" as="geometry">
            <mxPoint x="110" y="-139.5" as="sourcePoint" />
            <mxPoint x="120" y="-159.5" as="targetPoint" />
            <Array as="points">
              <mxPoint x="120" y="-139.5" />
            </Array>
          </mxGeometry>
        </mxCell>
        <mxCell id="o4xuiC8xF3JpILg-jTOS-43" value="" style="endArrow=none;html=1;rounded=0;" edge="1" parent="1">
          <mxGeometry width="50" height="50" relative="1" as="geometry">
            <mxPoint x="130" y="-119.5" as="sourcePoint" />
            <mxPoint x="120" y="-159.5" as="targetPoint" />
          </mxGeometry>
        </mxCell>
        <mxCell id="o4xuiC8xF3JpILg-jTOS-44" value="" style="endArrow=none;html=1;rounded=0;" edge="1" parent="1">
          <mxGeometry width="50" height="50" relative="1" as="geometry">
            <mxPoint x="130" y="-119.5" as="sourcePoint" />
            <mxPoint x="140" y="-159.5" as="targetPoint" />
          </mxGeometry>
        </mxCell>
        <mxCell id="o4xuiC8xF3JpILg-jTOS-45" value="" style="endArrow=none;html=1;rounded=0;" edge="1" parent="1">
          <mxGeometry width="50" height="50" relative="1" as="geometry">
            <mxPoint x="150" y="-119.5" as="sourcePoint" />
            <mxPoint x="140" y="-159.5" as="targetPoint" />
          </mxGeometry>
        </mxCell>
        <mxCell id="o4xuiC8xF3JpILg-jTOS-46" value="" style="endArrow=none;html=1;rounded=0;" edge="1" parent="1">
          <mxGeometry width="50" height="50" relative="1" as="geometry">
            <mxPoint x="150" y="-119.5" as="sourcePoint" />
            <mxPoint x="160" y="-159.5" as="targetPoint" />
          </mxGeometry>
        </mxCell>
        <mxCell id="o4xuiC8xF3JpILg-jTOS-47" value="" style="endArrow=none;html=1;rounded=0;" edge="1" parent="1">
          <mxGeometry width="50" height="50" relative="1" as="geometry">
            <mxPoint x="170" y="-119.5" as="sourcePoint" />
            <mxPoint x="160" y="-159.5" as="targetPoint" />
          </mxGeometry>
        </mxCell>
        <mxCell id="o4xuiC8xF3JpILg-jTOS-48" value="" style="endArrow=none;html=1;rounded=0;" edge="1" parent="1">
          <mxGeometry width="50" height="50" relative="1" as="geometry">
            <mxPoint x="170" y="-119.5" as="sourcePoint" />
            <mxPoint x="180" y="-159.5" as="targetPoint" />
          </mxGeometry>
        </mxCell>
        <mxCell id="o4xuiC8xF3JpILg-jTOS-49" value="" style="endArrow=none;html=1;rounded=0;" edge="1" parent="1">
          <mxGeometry width="50" height="50" relative="1" as="geometry">
            <mxPoint x="190" y="-139.5" as="sourcePoint" />
            <mxPoint x="180" y="-159.5" as="targetPoint" />
            <Array as="points">
              <mxPoint x="180" y="-139.5" />
            </Array>
          </mxGeometry>
        </mxCell>
        <mxCell id="o4xuiC8xF3JpILg-jTOS-50" value="" style="endArrow=none;html=1;rounded=0;" edge="1" parent="1">
          <mxGeometry width="50" height="50" relative="1" as="geometry">
            <mxPoint x="310" y="-139.5" as="sourcePoint" />
            <mxPoint x="320" y="-159.5" as="targetPoint" />
            <Array as="points">
              <mxPoint x="320" y="-139.5" />
            </Array>
          </mxGeometry>
        </mxCell>
        <mxCell id="o4xuiC8xF3JpILg-jTOS-51" value="" style="endArrow=none;html=1;rounded=0;" edge="1" parent="1">
          <mxGeometry width="50" height="50" relative="1" as="geometry">
            <mxPoint x="330" y="-119.5" as="sourcePoint" />
            <mxPoint x="320" y="-159.5" as="targetPoint" />
          </mxGeometry>
        </mxCell>
        <mxCell id="o4xuiC8xF3JpILg-jTOS-52" value="" style="endArrow=none;html=1;rounded=0;" edge="1" parent="1">
          <mxGeometry width="50" height="50" relative="1" as="geometry">
            <mxPoint x="330" y="-119.5" as="sourcePoint" />
            <mxPoint x="340" y="-159.5" as="targetPoint" />
          </mxGeometry>
        </mxCell>
        <mxCell id="o4xuiC8xF3JpILg-jTOS-53" value="" style="endArrow=none;html=1;rounded=0;" edge="1" parent="1">
          <mxGeometry width="50" height="50" relative="1" as="geometry">
            <mxPoint x="350" y="-119.5" as="sourcePoint" />
            <mxPoint x="340" y="-159.5" as="targetPoint" />
          </mxGeometry>
        </mxCell>
        <mxCell id="o4xuiC8xF3JpILg-jTOS-54" value="" style="endArrow=none;html=1;rounded=0;" edge="1" parent="1">
          <mxGeometry width="50" height="50" relative="1" as="geometry">
            <mxPoint x="350" y="-119.5" as="sourcePoint" />
            <mxPoint x="360" y="-159.5" as="targetPoint" />
          </mxGeometry>
        </mxCell>
        <mxCell id="o4xuiC8xF3JpILg-jTOS-55" value="" style="endArrow=none;html=1;rounded=0;" edge="1" parent="1">
          <mxGeometry width="50" height="50" relative="1" as="geometry">
            <mxPoint x="370" y="-119.5" as="sourcePoint" />
            <mxPoint x="360" y="-159.5" as="targetPoint" />
          </mxGeometry>
        </mxCell>
        <mxCell id="o4xuiC8xF3JpILg-jTOS-56" value="" style="endArrow=none;html=1;rounded=0;" edge="1" parent="1">
          <mxGeometry width="50" height="50" relative="1" as="geometry">
            <mxPoint x="370" y="-119.5" as="sourcePoint" />
            <mxPoint x="380" y="-159.5" as="targetPoint" />
          </mxGeometry>
        </mxCell>
        <mxCell id="o4xuiC8xF3JpILg-jTOS-57" value="" style="endArrow=none;html=1;rounded=0;" edge="1" parent="1">
          <mxGeometry width="50" height="50" relative="1" as="geometry">
            <mxPoint x="390" y="-139.5" as="sourcePoint" />
            <mxPoint x="380" y="-159.5" as="targetPoint" />
            <Array as="points">
              <mxPoint x="380" y="-139.5" />
            </Array>
          </mxGeometry>
        </mxCell>
      </root>
    </mxGraphModel>
  </diagram>
</mxfile>
